<svg width="24" height="24" viewBox="0 0 24 24" fill="none" xmlns="http://www.w3.org/2000/svg">
<path d="M20.3402 9.32013L6.34025 2.32013C5.78774 2.04514 5.16386 1.94724 4.55368 2.03978C3.9435 2.13232 3.37671 2.4108 2.93058 2.83724C2.48445 3.26369 2.1807 3.81735 2.06074 4.42274C1.94078 5.02813 2.01045 5.65578 2.26025 6.22013L4.66025 11.5901C4.7147 11.72 4.74275 11.8593 4.74275 12.0001C4.74275 12.1409 4.7147 12.2803 4.66025 12.4101L2.26025 17.7801C2.05695 18.2368 1.971 18.7371 2.01022 19.2355C2.04945 19.7339 2.21259 20.2145 2.48483 20.6338C2.75707 21.0531 3.12977 21.3977 3.56907 21.6363C4.00837 21.875 4.50033 22 5.00025 22.0001C5.46848 21.9955 5.92974 21.8861 6.35025 21.6801L20.3502 14.6801C20.8468 14.4303 21.2643 14.0474 21.5559 13.5742C21.8476 13.101 22.0021 12.556 22.0021 12.0001C22.0021 11.4442 21.8476 10.8993 21.5559 10.4261C21.2643 9.95282 20.8468 9.56994 20.3502 9.32013H20.3402ZM19.4502 12.8901L5.45025 19.8901C5.26641 19.9784 5.05998 20.0084 4.85863 19.976C4.65729 19.9436 4.47066 19.8504 4.32376 19.709C4.17686 19.5675 4.07673 19.3845 4.03678 19.1846C3.99683 18.9846 4.01897 18.7772 4.10025 18.5901L6.49025 13.2201C6.52119 13.1484 6.5479 13.075 6.57025 13.0001H13.4602C13.7255 13.0001 13.9798 12.8948 14.1674 12.7072C14.3549 12.5197 14.4602 12.2653 14.4602 12.0001C14.4602 11.7349 14.3549 11.4806 14.1674 11.293C13.9798 11.1055 13.7255 11.0001 13.4602 11.0001H6.57025C6.5479 10.9253 6.52119 10.8518 6.49025 10.7801L4.10025 5.41013C4.01897 5.22309 3.99683 5.01568 4.03678 4.8157C4.07673 4.61572 4.17686 4.43273 4.32376 4.29128C4.47066 4.14982 4.65729 4.05666 4.85863 4.02428C5.05998 3.9919 5.26641 4.02186 5.45025 4.11013L19.4502 11.1101C19.614 11.194 19.7515 11.3215 19.8475 11.4786C19.9435 11.6356 19.9943 11.8161 19.9943 12.0001C19.9943 12.1842 19.9435 12.3647 19.8475 12.5217C19.7515 12.6787 19.614 12.8062 19.4502 12.8901Z" fill="white"/>
</svg>
