<svg width="19" height="18" viewBox="0 0 19 18" fill="none" xmlns="http://www.w3.org/2000/svg">
<path d="M9.81732 0.483337C10.0312 0.697225 10.1432 0.969445 10.1533 1.3C10.1634 1.63056 10.0611 1.90278 9.84648 2.11667L4.12982 7.83333L17.1673 7.83334C17.4979 7.83334 17.7751 7.94534 17.9991 8.16934C18.2231 8.39334 18.3348 8.67022 18.334 9C18.334 9.33056 18.222 9.60784 17.998 9.83184C17.774 10.0558 17.4971 10.1674 17.1673 10.1667L4.12982 10.1667L9.84648 15.8833C10.0604 16.0972 10.1626 16.3694 10.1533 16.7C10.144 17.0306 10.032 17.3028 9.81731 17.5167C9.60343 17.7306 9.3312 17.8375 9.00065 17.8375C8.67009 17.8375 8.39787 17.7306 8.18398 17.5167L0.483983 9.81667C0.367316 9.71944 0.28448 9.59772 0.23548 9.4515C0.18648 9.30528 0.16237 9.15478 0.163148 9C0.163148 8.84444 0.187259 8.69861 0.23548 8.5625C0.283704 8.42639 0.366538 8.3 0.483983 8.18333L8.18398 0.483337C8.39787 0.269446 8.67009 0.162501 9.00065 0.162501C9.3312 0.162502 9.60343 0.269447 9.81732 0.483337Z" fill="url(#paint0_linear_145_2326)"/>
<defs>
<linearGradient id="paint0_linear_145_2326" x1="18.334" y1="9" x2="0.163129" y2="9" gradientUnits="userSpaceOnUse">
<stop stop-color="#AD2B2E"/>
<stop offset="1" stop-color="#CA1D20"/>
</linearGradient>
</defs>
</svg>
