<svg width="24" height="24" viewBox="0 0 24 24" fill="none" xmlns="http://www.w3.org/2000/svg">
<circle cx="12" cy="12" r="12" fill="url(#paint0_linear_154_9)"/>
<path d="M15.4453 8.84043C15.2539 8.42207 14.9818 8.04609 14.6346 7.7248C13.9291 7.06992 12.9926 6.70898 12 6.70898C11.0074 6.70898 10.0709 7.06992 9.36543 7.72344C9.01816 8.04609 8.74609 8.4207 8.55469 8.84043C8.35508 9.27793 8.25391 9.74141 8.25391 10.2199V10.5891C8.25391 10.6738 8.32227 10.7422 8.40703 10.7422H9.14531C9.23008 10.7422 9.29844 10.6738 9.29844 10.5891V10.2199C9.29844 8.85957 10.5098 7.75352 12 7.75352C13.4902 7.75352 14.7016 8.85957 14.7016 10.2199C14.7016 10.7777 14.5033 11.3027 14.1273 11.7402C13.7555 12.1736 13.2305 12.484 12.6494 12.6152C12.3172 12.6904 12.0178 12.8777 11.8059 13.1457C11.5947 13.4128 11.4796 13.7431 11.4791 14.0836V14.5129C11.4791 14.5977 11.5475 14.666 11.6322 14.666H12.3705C12.4553 14.666 12.5236 14.5977 12.5236 14.5129V14.0836C12.5236 13.8689 12.6727 13.6803 12.8791 13.6338C13.6775 13.4533 14.4021 13.0227 14.9203 12.4211C15.1814 12.1162 15.3852 11.7771 15.526 11.4094C15.6723 11.0279 15.7461 10.6273 15.7461 10.2199C15.7461 9.74141 15.6449 9.27656 15.4453 8.84043ZM12 15.7598C11.5775 15.7598 11.2344 16.1029 11.2344 16.5254C11.2344 16.9479 11.5775 17.291 12 17.291C12.4225 17.291 12.7656 16.9479 12.7656 16.5254C12.7656 16.1029 12.4225 15.7598 12 15.7598Z" fill="white"/>
<defs>
<linearGradient id="paint0_linear_154_9" x1="4.47035e-08" y1="12" x2="24" y2="12" gradientUnits="userSpaceOnUse">
<stop stop-color="#AD2B2E"/>
<stop offset="1" stop-color="#CA1D20"/>
</linearGradient>
</defs>
</svg>
