<svg width="12" height="14" viewBox="0 0 12 14" fill="none" xmlns="http://www.w3.org/2000/svg">
<path d="M6.00586 0C4.54768 0.00165421 3.14969 0.581648 2.1186 1.61274C1.08751 2.64383 0.507514 4.04182 0.505859 5.5C0.505859 10.2063 5.50586 13.7625 5.71836 13.9125C5.80352 13.9692 5.90355 13.9995 6.00586 13.9995C6.10817 13.9995 6.2082 13.9692 6.29336 13.9125C6.50586 13.7625 11.5059 10.2063 11.5059 5.5C11.5042 4.04182 10.9242 2.64383 9.89312 1.61274C8.86203 0.581648 7.46404 0.00165421 6.00586 0ZM6.00586 3.5C6.40142 3.5 6.7881 3.6173 7.117 3.83706C7.4459 4.05682 7.70224 4.36918 7.85362 4.73463C8.00499 5.10009 8.0446 5.50222 7.96743 5.89018C7.89026 6.27814 7.69978 6.63451 7.42007 6.91421C7.14037 7.19392 6.784 7.3844 6.39604 7.46157C6.00808 7.53874 5.60595 7.49913 5.24049 7.34776C4.87504 7.19638 4.56268 6.94004 4.34292 6.61114C4.12316 6.28224 4.00586 5.89556 4.00586 5.5C4.00586 4.96957 4.21657 4.46086 4.59165 4.08579C4.96672 3.71071 5.47543 3.5 6.00586 3.5Z" fill="url(#paint0_linear_119_1498)"/>
<defs>
<linearGradient id="paint0_linear_119_1498" x1="0.505859" y1="6.99973" x2="11.5059" y2="6.99973" gradientUnits="userSpaceOnUse">
<stop stop-color="#AD2B2E"/>
<stop offset="1" stop-color="#CA1D20"/>
</linearGradient>
</defs>
</svg>
